<?xml version="1.0" encoding="utf-8"?>
<!-- Generator: Adobe Illustrator 20.1.0, SVG Export Plug-In . SVG Version: 6.00 Build 0)  -->
<svg version="1.1" id="图层_1" xmlns="http://www.w3.org/2000/svg" xmlns:xlink="http://www.w3.org/1999/xlink" x="0px" y="0px"
	 viewBox="0 0 830.5 246" style="enable-background:new 0 0 830.5 246;" xml:space="preserve">
<style type="text/css">
	.st0{fill-rule:evenodd;clip-rule:evenodd;fill:#CF2931;}
	.st1{fill-rule:evenodd;clip-rule:evenodd;fill:#606060;}
	.st2{fill:#606060;}
</style>
<path class="st0" d="M0,123.9c-0.1-0.5,0.1-1,0.1-1c5.4-10.3,11.1-20.4,17.4-30.1C23,84.4,29,76.5,35.9,69.2
	c8.8-9.3,18.8-17,29.9-23.3c14.4-8.2,29.7-14.5,45.7-18.9c7.5-2.1,15-3.8,22.7-5c4.7-0.7,9.4-1.4,14.1-1.9c4.1-0.5,8.3-0.8,12.4-1.1
	c4.8-0.4,9.6-0.4,14.4-0.3c3.8,0.1,7.5,0.4,11.3,0.7c0.9,0.1,1.3,0.6,1.3,1.4c-0.1,0.8-0.6,1.2-1.4,1.2c-6.4-0.7-12.7-0.9-19.1-0.8
	c-5,0.1-10.1,0.4-15.1,0.8c-5.5,0.5-10.9,1.3-16.3,2.2c-6.7,1.2-13.2,2.7-19.8,4.4c-10.2,2.7-20.3,6-30,10.2
	c-12.3,5.4-23.9,12-34.4,20.5c-8.6,6.9-16,14.9-22.5,23.7c-6,8.1-11.4,16.6-16.3,25.4c-2.9,5.1-5.7,10.3-8.5,15.5
	c-0.1,0.2-0.2,0.5-0.4,0.7c-0.8,1.3-2.6,1.4-3.4,0.3C0.4,124.7,0.1,124.3,0,123.9z"/>
<path class="st0" d="M232.3,181c-1.1,0.1-2.1-0.7-2.5-1.7c-2.7-6.9-5.5-13.8-8.3-20.6c-2.6-6.5-5.5-12.8-9-18.9
	c-3.6-6.2-7.7-12.1-12.6-17.3c-7.2-7.6-15.9-12.8-26.1-15.5c-4.5-1.2-9.1-1.7-13.8-1.6c-9.9,0.2-19.1,3.1-27.7,7.9
	c-6.5,3.6-12.2,8.2-17.5,13.4c-6.7,6.6-12.5,13.8-17.7,21.5c-4.6,6.8-9,13.7-13.4,20.6c-7.2,11.2-14.4,22.5-21.7,33.7
	c-4,6.2-8.5,12.1-13.2,17.8c-0.3,0.3-0.6,0.7-0.9,1c-0.9,0.8-2.2,0.8-3.1,0c-0.9-0.8-1-2-0.4-3c0.1-0.1,0.2-0.3,0.3-0.4
	c6.6-8.2,12.5-16.8,18-25.7c6.9-11.2,13.8-22.4,20.7-33.6c4.2-6.9,8.5-13.8,13.2-20.3c5.3-7.4,11.1-14.4,17.8-20.6
	c7.5-7,15.9-12.4,25.4-16.1c4.6-1.7,9.2-2.9,14.1-3.5c3.5-0.4,7-0.6,10.5-0.5c12.5,0.6,23.5,4.9,33.2,12.6
	c5.2,4.2,9.5,9.2,13.4,14.6c4.8,6.9,8.7,14.2,11.9,22c2.9,7.1,5.7,14.4,8.5,21.6c1.2,3,2.3,6,3.4,9c0.4,0.9,0.3,1.7-0.2,2.5
	C234,180.6,233.3,181,232.3,181z"/>
<path class="st0" d="M159.6,131.8c8.6,0,16,2.5,22.7,7c4.6,3.1,8.5,6.8,12.1,11.1c4.9,5.9,9,12.2,12.4,19c3.3,6.6,6.5,13.3,9.7,19.9
	c1.5,3,2.9,6.1,4.3,9.2c0.2,0.4,0.4,0.8,0.5,1.2c0.4,1.3-0.1,2.6-1.2,3.3c-1.1,0.7-2.5,0.6-3.4-0.3c-0.4-0.4-0.7-0.8-0.9-1.3
	c-3.2-6.2-6.4-12.5-9.6-18.7c-3.3-6.3-6.8-12.4-11-18.1c-3-4.1-6.3-8-10.2-11.3c-4.3-3.7-9.1-6.7-14.5-8.5
	c-3.8-1.3-7.8-1.8-11.8-1.8c-6,0.1-11.6,1.7-17,4.2c-5,2.4-9.6,5.5-13.9,9c-5.7,4.8-10.8,10.1-15.6,15.7c-5.1,6-9.9,12.3-14.8,18.6
	c-8.1,10.3-16.2,20.7-24.3,31c-3,3.7-6.1,7.3-9.4,10.8c-0.6,0.6-1.1,1-2,1c-1.9-0.1-3-2-2-3.6c0.1-0.2,0.3-0.4,0.5-0.6
	c8.5-9.6,16.2-19.7,23.7-30.1c8.9-12.3,17.8-24.5,27-36.5c6.3-8.3,13.8-15.4,22.4-21.2c5.4-3.6,11.2-6.3,17.6-7.8
	C153.9,132.2,157,131.8,159.6,131.8z"/>
<path class="st0" d="M162,73.4c8.3,0,16.5,1,24.6,3.3c14.1,4.1,25.7,11.9,35.1,23.1c4.9,5.9,8.8,12.4,12.1,19.3
	c3.5,7.2,6.3,14.6,8.8,22.2c0.7,2.2,1.4,4.5,2.2,6.7c0.5,1.4-0.4,2.8-1.5,3.1c-1.3,0.4-2.6-0.2-3.1-1.5c-1.7-4.7-3.3-9.5-5.1-14.2
	c-2.7-7.3-6-14.3-10-21c-3.9-6.4-8.4-12.2-13.9-17.2c-8.4-7.7-18.2-12.8-29.2-15.6c-4.8-1.3-9.8-2.1-14.8-2.3
	c-17.1-1-32.9,3-47.5,11.8c-8.6,5.2-16.1,11.8-22.7,19.3c-6.3,7.2-11.8,15-16.8,23.1c-5.2,8.5-10.1,17.2-15,25.9
	c-6.4,11.2-12.7,22.5-19.4,33.5c-3.1,5.1-6.4,10.1-10,14.9c-0.3,0.4-0.6,0.8-1,1.1c-0.9,0.8-2.1,0.8-3,0c-0.9-0.8-1.1-2-0.5-3
	c0.1-0.1,0.2-0.2,0.2-0.4c6.1-8.3,11.5-17,16.5-26c6.6-11.7,13.1-23.5,19.6-35.3c4.3-7.8,8.7-15.5,13.7-22.9
	c5.3-7.9,11.2-15.3,18-22c11.3-11.2,24.7-18.8,40-23c4.3-1.2,8.6-1.9,13-2.4C155.4,73.6,158.7,73.4,162,73.4z"/>
<path class="st0" d="M157,176.3c5.7,0.1,10.9,1.7,15.8,4.5c6.4,3.7,11.6,8.6,15.8,14.6c4.4,6.3,8.6,12.7,12.9,19
	c0.5,0.8,1.1,1.6,1.5,2.4c1.2,2.2,0,4.7-2.4,5.2c-1.1,0.2-2.1-0.1-3-0.8c-0.4-0.4-0.8-0.8-1.1-1.2c-4.5-5.7-8.8-11.5-13.4-17.1
	c-4.8-5.9-10.9-10.1-18.1-12.6c-6.1-2.1-12.3-1.9-18.4-0.1c-8.1,2.4-15.4,6.6-21.7,12.2c-5.9,5.3-11.8,10.8-17.6,16.2
	c-7.8,7.3-15.6,14.7-23.5,22.1c-0.3,0.3-0.6,0.5-0.9,0.7c-1.1,0.8-2.7,0.7-3.6-0.4c-0.9-1-0.9-2.5,0-3.5c0.1-0.1,0.2-0.2,0.3-0.3
	c7.2-7.6,14.5-15.2,21.7-22.7c5.1-5.4,10.2-10.8,15.6-15.9c4.8-4.5,9.8-8.8,15-12.9c5.9-4.7,12.5-7.6,19.9-9
	C153.5,176.5,155.3,176.4,157,176.3z"/>
<path class="st0" d="M164.7,55.3c4.6,0.1,9.1,0.3,13.7,0.8c9.4,1.1,18.5,3.3,27.2,7.1c12.8,5.7,23.2,14.3,31.6,25.4
	c2.6,3.5,4.9,7.1,7.1,10.9c0.1,0.2,0.2,0.4,0.3,0.6c0.5,1.1,0,2.3-1,2.8c-1.1,0.5-2.2,0.2-2.8-0.8c-1.8-2.8-3.5-5.7-5.5-8.4
	c-5-7-10.8-13.2-17.8-18.3c-6.5-4.8-13.6-8.2-21.2-10.8c-5.8-2-11.7-3.3-17.7-4.1c-5.8-0.8-11.6-1-17.4-0.8
	c-4.4,0.1-8.7,0.6-13.1,1.2c-7.6,1.1-15.1,2.7-22.5,5.2c-15.3,5.2-28.4,13.8-39.6,25.4c-6.5,6.7-12.1,14.2-17.2,22
	c-5.1,8-9.8,16.2-14.2,24.6c-4.8,9.2-9.6,18.5-14.5,27.7c-5,9.3-10.3,18.5-16.2,27.2c-0.2,0.3-0.4,0.5-0.6,0.8
	c-0.7,0.8-1.8,1-2.7,0.5c-0.9-0.5-1.4-1.6-1-2.6c0.1-0.4,0.3-0.7,0.5-1c6.7-10,12.5-20.6,18.1-31.3c6.1-11.6,12.3-23.3,18.4-34.9
	c4-7.6,8.5-15,13.6-22c6.1-8.4,13-16,21.1-22.6c10-8.2,21.3-14.2,33.6-18.2c6.4-2.1,12.8-3.7,19.4-4.7c3.8-0.6,7.6-1.1,11.5-1.3
	C158.8,55.6,161.8,55.5,164.7,55.3z"/>
<path class="st0" d="M168.2,40.7c5,0.1,9.9,0.3,14.9,0.9c10.1,1.2,19.9,3.6,29.3,7.6c4.5,2,8.9,4.3,13.1,7c0.2,0.1,0.4,0.2,0.6,0.4
	c0.8,0.6,0.9,1.6,0.4,2.5c-0.5,0.8-1.6,1.1-2.5,0.7c-0.9-0.5-1.7-1.1-2.5-1.6c-8.6-5.3-17.8-8.9-27.6-11.1
	c-4.8-1.1-9.6-1.8-14.5-2.3c-4.9-0.4-9.8-0.5-14.6-0.4c-4.4,0.1-8.8,0.4-13.2,0.9c-9.5,1-18.9,2.7-28.1,5.3
	c-12.5,3.6-24.2,8.8-35,16c-9.7,6.6-18.1,14.6-25.4,23.7c-6.2,7.7-11.6,16-16.3,24.7c-6.6,12.4-13.1,24.8-19.6,37.3
	c-4,7.7-8,15.3-12.5,22.7c-0.2,0.3-0.4,0.6-0.6,0.9c-0.8,1.1-2.1,1.3-3.1,0.6c-1-0.7-1.3-1.9-0.6-3c2-3.4,4-6.7,5.9-10.2
	c4.9-8.8,9.4-17.8,13.9-26.8c4.4-8.7,8.8-17.4,13.7-25.8c4.6-7.8,9.5-15.4,15.1-22.5c12.5-15.8,28.2-27.4,46.7-35.2
	c9-3.8,18.2-6.6,27.8-8.5c4.3-0.9,8.7-1.6,13-2.2c3.6-0.5,7.3-0.9,11-1.1C161,41,164.6,40.9,168.2,40.7z"/>
<path class="st0" d="M171,28.7c3.2,0,7.5,0.2,11.8,0.6c7.7,0.7,15.2,2.1,22.6,4.2c0.2,0,0.3,0.1,0.5,0.2c0.7,0.2,1,0.8,0.9,1.5
	c-0.1,0.7-0.7,1.3-1.3,1.3c-0.3,0-0.6-0.1-0.9-0.2c-4.7-1.4-9.4-2.4-14.2-3.2c-3.7-0.6-7.4-0.9-11.1-1.1c-5.4-0.3-10.9-0.2-16.3,0.1
	c-4.8,0.2-9.5,0.6-14.3,1.1c-10.8,1.1-21.5,3.1-32,6.1c-17,4.9-32.8,12.4-47.1,23C56.8,71.8,46.3,83.4,37.9,97
	c-3.9,6.2-7.3,12.6-10.8,19c-5.8,10.9-11.6,21.9-17.5,32.8c-0.8,1.5-1.6,2.9-2.4,4.4c-0.2,0.3-0.3,0.6-0.6,0.9
	c-0.7,0.9-2,1.1-2.9,0.5c-0.9-0.6-1.3-1.8-0.8-2.8c0.1-0.1,0.1-0.3,0.2-0.4c6.5-12.2,13-24.3,19.5-36.5c3.7-7,7.6-13.8,11.9-20.4
	c5.5-8.3,11.6-16.1,18.7-23.1C63,61.7,74.1,54,86.4,47.8c9.9-5,20.3-8.8,31.1-11.7c6.8-1.8,13.6-3.4,20.6-4.4
	c4.7-0.7,9.4-1.4,14.1-2C158.1,29.1,164,28.8,171,28.7z"/>
<path class="st0" d="M140.3,235c-7,0.1-13.3,1.6-19.4,4.3c-3.6,1.6-7,3.5-10.3,5.8c-0.9,0.6-1.8,1-2.9,0.9c-1.1-0.2-2.1-1-2.5-2.2
	c-0.3-1.2,0-2.4,1-3.1c7.2-5.2,14.6-10.1,22.6-14c2.2-1.1,4.5-2,6.9-2.6c2.2-0.5,4.5-0.6,6.8-0.4c5,0.3,9.5,2.1,13.7,4.8
	c3.8,2.4,7.3,5.3,10.7,8.3c0.9,0.8,1.1,1.9,0.8,3.1c-0.5,2.3-3.3,3.3-5.2,2.1c-3.8-2.6-8-4.4-12.4-5.5
	C146.8,235.5,143.4,235.1,140.3,235z"/>
<path class="st0" d="M168,10.9c0,0.6-0.4,1-1.1,1c-1.1,0.1-2.2,0.1-3.4,0.1c-3.7,0.2-7.4,0.3-11.1,0.7c-19.4,1.9-38.4,5.8-56.9,11.9
	c-14.1,4.6-27.7,10.5-40.5,18.1c-12.6,7.4-23.9,16.4-33.5,27.4c-3.7,4.2-7,8.6-10.2,13.1c-0.3,0.4-0.5,0.8-0.8,1.1
	c-0.6,0.7-1.5,0.8-2.3,0.4c-0.7-0.4-1.1-1.3-0.8-2.1c0.1-0.4,0.3-0.8,0.6-1.2c12.1-16.7,27.1-30.2,45-40.6
	c11.8-6.9,24.3-12.3,37.2-16.7c11.8-4,23.8-7.2,36.1-9.7c5.1-1,10.2-1.9,15.4-2.6c4.5-0.6,9-1.1,13.5-1.4c3.8-0.2,7.7-0.4,11.5-0.5
	c0.2,0,0.4,0,0.6,0C167.7,10.1,168,10.4,168,10.9z"/>
<path class="st0" d="M33.3,44.2c-0.8,0.3-1.4,0-1.6-0.4c-0.2-0.4-0.1-1,0.2-1.4c0.3-0.3,0.6-0.6,1-0.8c6.6-4.3,13.5-8.2,20.5-11.7
	c12.5-6.1,25.4-11,38.7-15c10.1-3.1,20.4-5.7,30.8-7.7c5-1,10.1-1.7,15.2-2.6c2-0.3,4-0.5,5.9-0.8c0.1,0,0.3-0.1,0.4,0
	c0.6,0,1,0.4,1,0.9c0,0.5-0.3,0.8-0.9,0.9c-1.8,0.2-3.6,0.4-5.3,0.7c-3.3,0.5-6.6,0.9-9.9,1.5c-6.7,1.1-13.3,2.5-19.8,4.2
	c-18,4.6-35.5,10.5-52.3,18.5c-8.1,3.9-15.8,8.3-23.2,13.3C33.8,44,33.5,44.1,33.3,44.2z"/>
<path class="st0" d="M117.5,1.8c0,0,1-0.3,0.9-1.1c-0.2-0.9-1.3-0.7-1.3-0.7l0,0c-8.5,1.7-16.8,3.8-25.1,6.1
	C79.7,9.7,67.7,14,56,19.3c-0.4,0.2-0.8,0.8-0.5,1.5c0.4,0.8,1.2,0.5,1.5,0.4c16.7-7.7,34.4-13.3,52.3-17.6
	C112.1,2.9,114.8,2.3,117.5,1.8L117.5,1.8z"/>
<path class="st1" d="M597.8,45.5c0,0.5,0,0.9,0,1.4c0,28.7,0,57.3,0,86c0,0.4,0,0.8,0,1.4c-2.2,0-4.3,0-6.3,0c-1.2,0-3.2,0-4.3,0
	c0,0-0.3-0.3-0.5-0.6c-16.3-21.6-32.5-43.1-48.8-64.7c-0.3-0.4-0.7-0.9-1.2-1.5c0,22.4,0,44.6,0,66.8c-3.6,0-7.1,0-10.7,0
	c0-0.5,0-0.9,0-1.3c0-28.7,0-57.3,0-86c0-0.5,0-0.9-0.1-1.4c3.8,0,7.7,0,11.5,0c0.5,0.8,1,1.6,1.6,2.4c15.8,21,31.6,41.9,47.4,62.9
	c0.2,0.2,0.4,0.5,0.8,0.9c0-0.7,0-1.1,0-1.4c0-21.2,0-42.4,0-63.5c0-0.4,0-0.8,0-1.2C590.7,45.5,594.2,45.5,597.8,45.5z"/>
<path class="st1" d="M312.1,45.5c0,4.8,0,9.6,0,14.4c0,21.4,0,42.8,0,64.3c0,5.9-0.5,11.8-1.8,17.6c-2.1,8.6-6.8,15.4-14.2,20.3
	c-3.4,2.2-9.4,5.4-12.3,6.3c-0.7-1.4-1.3-2.9-2.1-4.4c0.4-0.2,0.7-0.4,1-0.6c5.5-3.1,10-7.1,12.6-12.9c1.8-4,2.7-8.3,2.8-12.6
	c0.2-13.1,0.3-26.2,0.4-39.2c0.1-12.3,0-24.6,0-36.9c0-4.5-0.1-9-0.1-13.5c0-0.8,0-1.7,0-2.6C302.9,45.5,307.6,45.5,312.1,45.5z"/>
<path class="st1" d="M368.2,45.5c0,5.4,0.1,10.8,0.1,16.2c0,17.9-0.1,35.8-0.1,53.7c0,5.2,0.1,10.5,0.1,15.7c0,1,0,2,0,3.1
	c-4.5,0-9.1,0-13.8,0c0-29.6,0-59.1,0-88.7C359,45.5,363.6,45.5,368.2,45.5z"/>
<path class="st1" d="M768,86.4c-1-0.4-2-0.9-3.1-1.4c-4.3-2-8-4.7-10.5-8.8c-0.8-1.3-1.5-2.8-2-4.3c-0.4-1.2-1-1.6-2.2-1.5
	c-3.2,0-6.5,0-9.7,0c-0.7,0-1.4,0-2.3,0c0-2-0.1-3.8-0.1-5.8c4.3,0,9.1,0,13.2,0c0-2.1-0.1-4-0.1-6.2c1.5,0,7.7-0.2,10.5-0.1
	c0,2,0,4,0,6.1c14.5,0,28.6,0,43,0c0-2.1,0-4,0-5.9c1.7,0,8-0.1,10.6-0.2c0.1,2-0.1,4,0,6.2c4.4,0,8.9,0,13.3,0c0,2,0,3.8,0,5.8
	c-0.8,0-1.5,0.1-2.2,0.1c-3.4,0-6.8,0-10.1,0c-1.1,0-1.8,0.3-2.2,1.5c-1.5,4.7-4.6,8.2-8.7,10.7c-1.8,1.1-3.7,2-5.6,2.9
	c-0.6,0.3-1.2,0.5-1.8,1c4.8,1,9.6,1.4,14.4,1.8c4.8,0.4,9.6,0.9,14.6,1.3c0.3,1.8,0.2,3.6,0.1,5.6c-2,0-3.8,0.1-5.6,0
	c-4.4-0.3-8.8-0.7-13.3-1c-8-0.6-16-1.8-24-3.3c-0.8-0.2-1.7-0.1-2.5,0c-7.9,1.5-15.9,2.7-24,3.3c-5.7,0.4-11.3,0.8-17,1.2
	c-0.6,0-1.3,0-2.1,0c0-2,0-3.8,0-5.7c9.8-0.9,19.4-1.5,29-2.9C768,86.8,768,86.6,768,86.4z M763.2,70.5c0.3,0.9,0.5,1.4,0.7,1.8
	c1.2,2.4,3.1,4.3,5.3,5.8c4.1,2.9,8.8,4.5,13.6,5.7c0.4,0.1,0.9,0.1,1.3,0c4.8-1.2,9.4-2.8,13.4-5.7c2-1.4,3.8-3.1,5.1-5.2
	c0.3-0.6,0.6-1.2,1.1-2.3C790,70.5,776.8,70.5,763.2,70.5z"/>
<path class="st1" d="M826.6,45.9c0,4.2,0,8.1,0,12.2c-3.4,0-6.7,0-10.1,0c0-2,0-4.3,0-6.1c-1.8,0-63.8,0.3-66,0.3c0,1.8,0,3.8,0,5.9
	c-3.5,0-6.8-0.1-10.3,0c0-4,0-8-0.1-12.1c0.9,0,2,0,2.7,0c10.5,0,24.1-0.1,34.6-0.1c0,0,0,0.4,0-3.4c0-0.7,0-1.4,0-2.1
	c1.5,0,8.6,0,11.8,0c0.1,1.8-0.1,3.3,0,5.4c4.2,0.1,8.5,0,12.6,0c4.1,0,8.2,0,12.3,0C818.3,45.9,822.4,45.9,826.6,45.9z"/>
<path class="st0" d="M421.1,40.1c-0.2,1.8-0.4,3.5-0.6,5.2c-0.6,0.2-1.1,0.3-1.8,0.6c-0.7,5.5-1.5,11-2.2,16.6
	c-1.1,0.1-2,0.2-3.1,0.3c-0.2,1.5-0.5,2.9-0.7,4.4c-0.8,0-1.6,0-2.5,0c-0.2-1.5-0.4-2.9-0.7-4.4c-1-0.1-2-0.1-3.2-0.2
	c-0.6-5.5-1.2-11-1.9-16.5c-0.6-0.2-1.1-0.4-1.8-0.7c-0.2-1.6-0.4-3.3-0.6-5.1C408.4,40.1,414.6,40.1,421.1,40.1z"/>
<path class="st1" d="M474.7,103 M475.8,103.6l0.4,1l0.2,0.6c3.6,9.7,7.3,19.2,10.9,28.9h14.9c-0.1-0.4-0.3-0.8-0.4-1.2
	c-9.9-26.1-19.9-52.2-29.8-78.3c-1.2-3-2.3-6.1-3.4-9.2c-3.3,0-6.5,0-9.8,0c-0.1,0.3-0.2,0.6-0.3,0.9c-0.8,2-1.6,4-2.4,6
	c-9.2,22.6-18.4,45.1-27.7,67.7c-1.9,4.7-3.8,9.4-5.7,14.1h13.8c3.4-9.5,7.1-18.5,10.5-27.9h0l0.9-2.6 M450.4,97.2l11.6-29.8
	c4.7,12.5,6.7,17.2,11.5,29.8C464.1,97.2,459.9,97.2,450.4,97.2z"/>
<path class="st1" d="M723.6,124.8c-6.4-5.3-10.9-12-13.5-19.9c-2.1-6.5-2.8-13.2-2.7-20c0.1-12.4,0-26.4,0.1-38.8c0,0-0.1,0.5-0.1,0
	c-2.9,0-55.7,0-57.3,0c0,0.4-0.1-0.5-0.1,0c0,9.5,0,20.5,0,30.1c0,6.7,0.4,13.5-0.6,20.2c-1.7,11.2-6.4,20.8-15.2,28.2
	c-0.1,0.1-0.2,0.2-0.3,0.3v8.3c8.6-4.9,15.8-11.3,20.8-20c5-8.6,7-18.1,7.2-27.9c0.1-2.8-0.2-5.6-0.2-8.3c0-6.9,0-13.9,0-20.9
	c0-0.7-0.1-1.4,0-2.2c11.4,0,22.9,0,34.2,0c0.1,0.7,0,1.3,0,1.9c0,8.6-0.1,17.2-0.1,25.8c0,4,0.1,8,0.6,11.9
	c2.4,17.8,11.8,30.9,27.3,39.8V124.8z"/>
<path class="st1" d="M827.2,108.8c0.8,0,1.6,0,2.4,0c0-2.1,0-4.2,0-6.3c-0.5,0.1-1,0-1.6,0c-12.3,0-24.6,0-36.9,0
	c-0.6,0-1.2-0.1-2-0.1c0-1.1,0-2.1,0-3c0-1-0.1-2.1-0.1-3.1c-2.7,0-8.8-0.1-11.1,0c0,1.9,0,4.1,0,6.3c-13.8,0-27.3,0-40.9,0
	c0,2.1,0,4.2,0,6.3c0.9,0,1.7,0,2.5,0c5.3,0,10.6,0,15.9,0c0.7,0,1.5-0.1,2.6,0c-0.9,1.7-1.6,3.3-2.4,4.6c-2.5,3.9-6,6.7-10,8.8
	c-2,1.1-5.7,2.5-7.8,3.4v6.5c6.9-2.1,14.9-5.3,20.5-9.5c3.6-2.7,6.6-6.1,8.8-10.1c0.6-1.2,1.3-2.9,2.2-3.7c0,0,2.6,0,4,0
	c1.5,0,3,0,4.8,0c0,8.5,0,16.9,0,25.2c2.4,0,9.4,0,11.2,0c0-8.2,0-16.7,0-25.2c3.2,0,6-0.1,8.7,0.1c0.4,0,0.4,0.6,0.6,1
	c2.8,6.8,7.8,11.6,14,15.2c5.4,3.2,11.2,5.3,17.2,6.9c0-2.1,0-4.2,0-6.4c-5.1-1.7-9.9-4.1-14-7.6c-2.3-2-4.3-4.3-5.7-7
	c-0.3-0.6-0.7-1.4-1.2-2.3c1-0.1,1.9,0,2.7,0C816.6,108.8,821.9,108.8,827.2,108.8z"/>
<g>
	<path class="st2" d="M320.9,191.7l6.1,3.1c0.3,0.2,0.3,0.4,0,0.7l-1.7,2.4l0.2,21.8l0.2,10.9c0,4.8-2.7,8.5-8.2,10.9
		c-0.3,0.2-0.5,0-0.5-0.5c0.2-2.7-0.8-4.5-2.9-5.3c-0.2-0.2-0.2-0.3-0.2-0.5c0-0.2,0.1-0.2,0.2-0.2c3.5,0.2,5.2-0.1,5.1-0.7l-0.5-38
		l-31.5,0.5l0.2,36.1c-0.3,2.7-1.7,5.4-4.1,8c-0.3,0.5-0.6,0.6-1,0.5c-0.3-0.2-0.5-0.5-0.5-1l0.2-17.9l0.2-20.8l-0.2-8.7
		c0-0.3,0.2-0.4,0.7-0.2l4.8,2.9l30.8-0.7L320.9,191.7z M302.5,182.5l3.6,4.6c0.2,0.2,0,0.4-0.5,0.7c-2.7,1.5-8.1,3.7-16,6.8
		c-0.5,0-0.6-0.2-0.2-0.5C295.4,190.1,299.8,186.2,302.5,182.5z M307.6,205.7l2.2-3.1l5.3,3.1c0.3,0.2,0.3,0.4,0,0.7l-1.5,2.2
		l0.2,12.1l0.5,1c0.2,0.5,0,0.7-0.5,0.7c-3.6-0.3-9.1-0.3-16.7,0c-0.3,2.3-1.5,4.4-3.4,6.3c-0.6,0.5-1.1,0.4-1.2-0.2l0.2-11.6v-8.5
		v-5.1c0-0.3,0.1-0.3,0.2,0l4.4,2.7L307.6,205.7z M297.4,207.4l-0.2,13.3l10.7-0.2l-0.2-13.3L297.4,207.4z"/>
	<path class="st2" d="M363.6,215.2c-0.5,1.1-1.4,2.2-2.7,3.1c-0.8,0.5-1.3,0.4-1.5-0.2l0.2-7.3v-9.4c0-0.6-0.1-1.7-0.2-3.1
		c0-1.1,0-1.9,0-2.2c0-0.5,0.2-0.6,0.5-0.2l3.6,1.9l2.9-0.2c1.3-2.6,2.3-5.6,3.1-9l-14.3,0.5v17c0.8,13.1-5.8,24.4-19.9,33.9
		c-0.3,0.2-0.5,0.1-0.5-0.2c0-0.3,0.2-0.6,0.5-0.7c6-5,9.9-9.9,11.9-14.8c1.9-4.7,2.7-11.8,2.4-21.3v-10.2l-0.5-7.5
		c0-0.3,0.2-0.4,0.5-0.2l5.8,2.7l27.9-0.5l3.4-4.1l4.8,4.4c0.2,0.3,0,0.6-0.5,0.7l-19.9,0.5l4.1,1.9c0.5,0.3,0.5,0.6,0,1
		c-1.3,0.6-3.9,2.7-7.8,6.1l12.8-0.5l1.9-2.7l5.6,2.7c0.3,0,0.3,0.2,0,0.5l-1,1.7l-0.2,13.6l0.5,1.5l0.2,0.5
		c-0.2,0.2-0.3,0.2-0.5,0.2c-1.8-0.3-4.4-0.3-7.8,0h-3.6l-0.2,12.1l0.2,5.8c0,3.5-2.3,6.4-6.8,8.5c-0.5,0-0.7-0.2-0.7-0.5
		c0-2.1-0.6-3.6-1.9-4.4c-0.3-0.2-0.5-0.3-0.5-0.5c0-0.2,0.2-0.2,0.5-0.2c2.9,0.2,4.2-0.2,3.9-1l0.2-19.9L363.6,215.2z M367.2,222.2
		c0.3,0.2,0.3,0.4,0,0.7c-4.7,5.7-10.3,11.4-17,17.2c-0.8,0.3-1,0.2-0.5-0.5c5.6-6.6,9.8-13.4,12.4-20.3L367.2,222.2z M381,198.2
		l-17.2,0.7v6.3l14-0.5c0.5-0.2,0.7,0,0.7,0.5c0,0.3-0.2,0.5-0.7,0.5l-14,0.5v7.8l17-0.5L381,198.2z M379.3,220.2
		c6.6,2.7,10.3,5.3,11.1,7.8c-0.2,1.6-1.1,3.1-2.7,4.6c-1.3,0.8-2.2,0.6-2.7-0.7c-1.3-4.8-3.3-8.6-6.1-11.1
		C379.1,220.4,379.1,220.2,379.3,220.2z"/>
	<path class="st2" d="M425.6,203.3l4.6,2.9c0.3,0.3,0.3,0.7,0,1.2l-1.2,1.2v9.9c-0.2,2.9-2.1,5.3-5.8,7.3c-0.5,0.2-0.7,0-0.7-0.5
		c0-1.9-0.6-3.1-1.9-3.4c-0.5-0.5-0.4-0.8,0.2-1c2.1,0.2,3-0.2,2.7-1.2v-11.4c0.2-0.8-0.2-1.2-1-1.2l-9.2,0.5v0.2l-0.5,22.5
		c0,1.9,1.3,3,3.9,3.1c2.3,0.3,5.7,0.2,10.4-0.5c2.3-0.2,3.8-1.9,4.6-5.1c0.2-0.3,0.3-0.5,0.5-0.5c0.3,0,0.5,0.2,0.5,0.5
		c-0.2,2.3,0.2,3.5,1.2,3.6c2.9,2.3,2.3,4.3-1.9,6.1c-3.2,1.3-7.7,1.7-13.3,1.2c-6.3-0.5-9.6-3.5-9.9-9l-0.2-20.8l-0.2-4.8
		c-3.1,3.6-6.7,7.1-10.9,10.7c-0.3,0.2-0.6,0.2-0.7,0c0-0.3,0.1-0.6,0.2-0.7c8.9-9.4,15.3-19.9,19.4-31.7l5.8,2.9
		c0.3,0.2,0.3,0.4,0,0.7l-1.2,1.2c6,3.4,10.3,6.8,12.8,10.2c0.3,1.9-0.4,3.8-2.2,5.6c-1,1.1-1.9,0.8-2.7-1c-1.9-5-4.8-9.6-8.5-13.8
		c-3.2,5.3-7,10.4-11.4,15.3l5.1,2.7l9-0.2L425.6,203.3z M436.9,193.6l3.6,1.7c0.5,0.2,0.6,0.6,0.5,1.5l-0.5,22.8
		c0,2.3-1,4.3-2.9,6.1c-1,0.5-1.5,0.4-1.5-0.2l0.2-31.2C436.5,193.4,436.6,193.3,436.9,193.6z M446.4,184.2l6.3,2.7
		c0.3,0.2,0.3,0.4,0,0.7l-1.2,2.2v40.2c0.2,5-2.2,8.7-7,11.1c-0.3,0.2-0.6,0.2-0.7,0c-0.2-0.2-0.2-0.3,0-0.5
		c0.3-2.3-0.5-3.8-2.4-4.6c-0.3-0.5-0.2-0.7,0.2-0.7c3.2,0.2,4.7-0.6,4.4-2.4l0.2-36.3c-0.2-5.5-0.2-9.4-0.2-11.9
		C445.7,184.2,445.9,184,446.4,184.2z"/>
	<path class="st2" d="M481.7,202.3c-1.6,0-3.6,0.2-6.1,0.7c-0.2,0-0.3,0-0.5,0l-1.7-1.5l23.7-1.2l3.1-3.1l4.1,3.6
		c0.3,0.3,0.3,0.6,0,0.7l-16.5,0.5l3.9,2.4c0.3,0.3,0.3,0.5,0,0.5l-1.2,0.5c-0.3,0.2-0.8,0.5-1.5,1c-1,0.6-1.6,1.1-1.9,1.2
		c2.4,2.3,4.4,4.8,5.8,7.8c5.5-3.9,9.6-7.3,12.4-10.4l4.6,4.1c0.3,0.3,0.3,0.6,0,0.7c0-0.2-0.1-0.2-0.2,0c-2.4,0.8-5.4,1.9-9,3.4
		c1,6.3,6.8,12.1,17.4,17.4c0.3,0.2,0.4,0.4,0.2,0.7c0,0.2-0.2,0.2-0.5,0.2c-2.3,0.2-4.7,1.5-7.3,3.9c-7.1-6.3-10.7-13.6-10.7-22
		c-0.6,0.3-1.8,0.7-3.4,1.2c-1.5,0.6-2.6,1.1-3.4,1.5c2.1,4.5,2.7,10.2,1.7,17c-1.1,4.5-4.2,7.6-9.2,9.2c-0.2,0.2-0.3,0.2-0.5,0
		v-0.7c0.2-2.4-0.6-4.1-2.4-5.1c-0.2-0.2-0.2-0.3-0.2-0.5c0-0.2,0.2-0.2,0.5-0.2c3.7,0.6,5.6-0.1,5.8-2.2c1-3.9,1.4-7.4,1.2-10.7
		c-6.9,6.1-16.7,11.7-29.3,16.7c-0.3,0.2-0.6,0.2-0.7,0c0-0.3,0.1-0.6,0.2-0.7c10.2-5,19.9-12.4,29.3-22.3c-0.2-0.8-0.4-1.5-0.7-2.2
		c-6.9,5.7-15.4,10.5-25.4,14.5c-0.5,0-0.6-0.2-0.2-0.5c9.5-5.5,17.4-11.9,23.7-19.1c0-0.2-0.1-0.3-0.2-0.5
		c-0.2-0.3-0.3-0.5-0.5-0.5c-6.1,3.6-13.2,7.1-21.1,10.7c-0.3,0.2-0.6,0.1-0.7-0.2c-0.2-0.2-0.1-0.3,0.2-0.5
		c8.6-4.8,15.7-10.2,21.3-16H481.7z M467.2,205.5c-0.6,0.6-1.1,0.7-1.5,0.2c-1.3-1.9-1.8-3.7-1.5-5.3c3.5-2.1,5.5-5.5,5.8-10.2
		c0.5-0.5,0.8-0.5,1,0l1.5,2.7l13.6-0.5l-0.2-8.5c0-0.5,0.2-0.6,0.5-0.5l6.8,1.9c0.3,0.3,0.3,0.6,0,1c-0.5,1-0.7,1.9-0.7,2.7v3.1
		l13.3-0.2l2.9-2.7l6.3,5.1c0.5,0.5,0.4,0.9-0.2,1.2c-2.4,0.2-5.6,1.2-9.4,3.1c-0.3,0.2-0.6,0.2-0.7,0.2c-0.2-0.2-0.2-0.4,0-0.7
		l1.7-5.3l-33.7,1.5C472.5,198.7,470.8,202.4,467.2,205.5z"/>
	<path class="st2" d="M544.2,226.3l2.9,4.8c0.3,0.3,0.2,0.7-0.5,1.2c-6.6,3.7-14.7,7-24.2,9.9c-0.3,0-0.5-0.1-0.5-0.2
		c-0.2-0.2-0.1-0.3,0.2-0.5c8.9-3.4,15.9-8.4,21.1-15C543.7,226.1,544.1,226,544.2,226.3z M530.4,224.8c-0.5,0-1.1,0.1-1.9,0.2
		c-2.4,0-4,0.2-4.8,0.5l-1.7-2.2h15l0.2-24.7l-0.2-13.8c0-0.5,0.2-0.6,0.5-0.5l5.1,2.7l17.7-0.2l2.7-3.4l5.1,2.7
		c0.3,0.2,0.3,0.4,0,0.7l-1.5,2.4l-0.2,33.9l6.8-0.2l3.6-3.4l4.6,3.9c0.3,0.5,0.2,0.7-0.2,0.7L530.4,224.8z M558.3,213
		c0.8,0.3,0.8,0.8,0,1.5l-16.2,0.5l-0.2,8.5l18.4-0.2l0.2-35.1l-18.2,0.5v6.8l15.7-0.2c0.5,0,0.7,0.2,0.7,0.5c0,0.5-0.2,0.7-0.7,0.7
		l-16,0.5v7.8l16-0.5c0.5,0,0.7,0.2,0.7,0.7c0,0.3-0.2,0.6-0.7,0.7l-16,0.5v7.5L558.3,213z M552.9,228.2c8.4,1.1,14.4,2.8,18.2,5.1
		c1.3,1.5,1.3,3.4,0,5.8c-1,1.5-2.2,1.5-3.6,0c-4-4.5-9-8-14.8-10.4C552.4,228.6,552.5,228.4,552.9,228.2z"/>
	<path class="st2" d="M607.9,219.8c0.5-0.2,0.6,0,0.5,0.5l-7.8,11.6c-0.5,0.8-1.4,1.9-2.7,3.1c-0.8,1-1.4,1.7-1.7,2.2
		c-0.2,0.5-0.4,0.6-0.7,0.5l-4.4-3.9c-0.3-0.3-0.4-0.6-0.2-0.7c0.8-0.3,2-1.1,3.6-2.4c0.5-0.5,0.9-0.8,1.2-1l-0.2-26.6l-4.1,0.2
		c-1.6,0-3.3,0.2-5.1,0.5l-2.2-1.9l10.9-0.2l2.4-3.1l4.8,3.1c0.3,0,0.3,0.2,0,0.5l-1.5,1.9l-1.2,22.5L607.9,219.8z M592.2,184.4
		c4.8,1.6,7.5,3.2,8,4.8c0.5,1.9-0.4,3.7-2.7,5.3c-1,0.3-1.7,0.1-2.2-0.7c-0.8-4.4-2-7.3-3.6-9C591.5,184.4,591.7,184.2,592.2,184.4
		z M607.2,211.3c-0.6-0.5-0.6-1,0-1.5l19.4-0.5l2.4-2.7l5.6,3.9c0.3,0.2,0.3,0.4,0,0.7l-2.7,1.9c-2.9,4.5-6.5,8.8-10.7,12.8
		c6.3,4.7,13.4,7.9,21.3,9.7c0.2,0.2,0.3,0.3,0.5,0.5c-0.2,0.2-0.3,0.2-0.5,0.2c-3.1,0-6.1,1.6-9.2,4.8c-6.3-3.4-11.4-7.5-15.3-12.4
		c-5.8,4.8-12.4,9.2-19.6,13.1c-0.3,0.2-0.6,0.2-0.7,0c-0.2-0.3-0.2-0.6,0-0.7c7.4-4.4,13.6-9.4,18.4-15.3c-2.9-4.4-4.9-9.4-6.1-15
		L607.2,211.3z M630.7,187.1c0.3,0,0.3,0.2,0,0.5l-1.5,2.4l-2.4,7.8c-0.3,1.5,0,2.3,1,2.4c2.6,0.2,5.2-0.4,8-1.7
		c0.6-0.3,1-0.4,1.2-0.2l0.2,0.2c1.5,1,2.7,2.2,3.6,3.6c0.5,0.5,0.2,1-1,1.5c-3.1,1.3-6.7,1.7-10.9,1.2c-4.5-0.5-6.6-3.2-6.3-8.2
		l0.7-7.8l-7.8,0.2c0.6,8.4-3.1,15.6-11.4,21.6c-0.6,0.2-0.9-0.1-0.7-0.7c5-4.7,7.4-10.4,7.3-17.2v-8.2l4.8,3.4v0.2l7.3-0.5l2.2-3.4
		L630.7,187.1z M626.1,210.6l-15.3,0.5c1,4.4,3.4,8.5,7.3,12.4C621,219.7,623.7,215.4,626.1,210.6z"/>
	<path class="st2" d="M673.6,220.5c0.5-0.2,0.6,0,0.5,0.5l-10.7,13.3c-0.8,0.6-1.9,1.9-3.1,3.6c-0.6,0.8-1.1,1.4-1.5,1.7
		c-0.2,0.5-0.4,0.6-0.7,0.5l-4.6-4.4c-0.3-0.3-0.3-0.6,0-1c1,0,2.4-0.6,4.4-1.9c-1.5,1.1-1.3,1.1,0.5-0.2v-29.1l-4.1,0.2
		c-2.1,0-3.9,0.2-5.3,0.7l-2.2-1.9l11.1-0.5l2.7-3.1l4.8,3.1c0.3,0.2,0.3,0.3,0,0.5l-1.5,1.9l-0.5,24.5L673.6,220.5z M654.9,184.4
		c4.5,1.5,7.3,3.2,8.5,5.3c0.6,1.5-0.3,3.3-2.9,5.6c-1.1,0.5-1.9,0.4-2.4-0.2c-1-4.7-2.3-8.1-3.9-10.2
		C654.2,184.6,654.4,184.4,654.9,184.4z M688.8,186.8l-0.7,2.7v14.8l7.8-0.2l3.1-3.6l4.1,3.9l0.2,0.5c-0.2,0.2-0.3,0.2-0.5,0.2
		l-14.8,0.5l-0.2,18.6l0.5,10.7c-0.5,2.9-2.3,5.4-5.3,7.5c-0.5,0.2-0.8-0.3-1-1.5l0.2-10.9v-24.2l-5.1,0.2c-2.7,0-4.9,0.2-6.5,0.7
		l-2.2-1.9l13.8-0.5l0.2-9.7l-0.5-11.1l6.5,2.7C688.7,186.1,688.8,186.3,688.8,186.8z"/>
	<path class="st2" d="M719.8,189.7c-2.9,0-5.2,0.2-6.8,0.7l-1.7-1.7l21.6-0.5l3.1-3.1l3.4,3.4c0.2,0.3,0.1,0.6-0.2,0.7l-15.3,0.5
		l4.4,2.9c0.2,0.2,0.2,0.3,0,0.5v0.2c-3.1,2.7-6.8,6.4-11.1,10.9c5.6,0,11-0.2,16-0.7c-0.8-2.4-2.1-4.4-3.9-6.1l0.5-0.5
		c5.2,2.3,8.2,4.4,9.2,6.3c0.6,3.1-0.2,5.1-2.7,6.1c-1.1,0.3-1.9-0.1-2.4-1.2c0-0.3-0.1-0.9-0.2-1.7c0-0.6-0.1-1.1-0.2-1.5
		c-3.7,0.6-7,1.4-9.9,2.2l5.3,1.5c0.5,0.3,0.5,0.7,0,1.2c-0.5,0.6-0.7,1.9-0.7,3.6v3.1l4.1-0.2l2.9-3.1l3.9,3.6
		c0.3,0.5,0.2,0.7-0.2,0.7l-10.7,0.2V229l11.6-2.2c0.5,0.2,0.6,0.3,0.5,0.5l-25.4,9.4c-0.6,0.6-1.2,0.5-1.7-0.5l-2.4-3.9l-0.2-0.5
		c0.2-0.2,0.3-0.2,0.5-0.2c3.9-0.5,6.5-0.8,8-1l4.1-0.7v-11.9h-3.4c-0.5,0-1.1,0.1-1.7,0.2c-2.3,0-3.8,0.2-4.6,0.5l-1.9-1.7
		l11.6-0.2v-2.9c0-2.9-0.1-5.1-0.2-6.5c-3.7,0.8-6.5,1.6-8.5,2.4c-0.5,0.3-0.8,0.2-1-0.2l-1.7-4.6c-0.2-0.5-0.2-0.6,0-0.5
		c1,0,1.9,0,2.9,0c2.7-3.9,5.6-8.8,8.5-14.8H719.8z M754,186.6c0.5,0.5,0.5,0.8,0,1c-1,0.6-1.7,1.6-2.2,2.9
		c-0.5,0.8-1.2,2.1-2.2,3.9c-1.3,2.9-2.3,5-3.1,6.3l11.1-0.5l3.1-3.9l4.4,3.9c0.3,0.3,0.3,0.6,0,0.7l-11.6,0.7l4.1,2.2
		c0.8,0.2,0.8,0.9,0,2.2c-2.1,7.3-4.6,13.1-7.5,17.4c4.2,5,9.7,9,16.5,11.9c0.3,0.2,0.5,0.3,0.5,0.5c-0.2,0.2-0.4,0.3-0.7,0.5
		c-1.9-0.2-4.8,1.1-8.5,3.9c-5.3-4.2-8.9-8.5-10.7-12.8c-3.6,4.2-9.2,8.8-17,13.8c-0.2,0.2-0.3,0.1-0.5-0.2c-0.2-0.2-0.2-0.3,0-0.5
		c7.1-5.3,12.4-11.1,15.7-17.2c-1-3.4-1.9-8.6-2.9-15.5c-1.1,2.1-2.4,4.3-3.9,6.5c-0.3,0.3-0.5,0.2-0.5-0.2
		c4.8-13.2,7.9-23.5,9.2-30.8L754,186.6z M743.3,207.4c0.8,4.5,2.2,8.6,4.1,12.1c2.6-6,4.3-11.9,5.1-17.9l-6.8,0.5
		c-0.3,0.6-0.8,1.5-1.5,2.7c-0.6,1.3-1.1,2.3-1.5,2.9L743.3,207.4z"/>
	<path class="st2" d="M781.6,198.4l3.9,3.6c0.3,0.2,0.3,0.4,0,0.7c-0.5,0.8-1.1,1.5-1.7,1.9l11.1-0.2l2.7-3.4l4.6,3.1
		c0.3,0.2,0.3,0.4,0,0.7l-1.5,1.7l-0.2,11.4l0.2,8.5c0.3,5.8-2.5,10.2-8.5,13.1c0-2.3-0.8-3.9-2.4-4.8c-0.3-0.2-0.2-0.2,0.2-0.2
		c3.7,0.2,5.4-2.3,5.1-7.5l0.2-21.3l-12.8,0.2c-1.3,1.8-2.8,3.4-4.6,4.8l3.1,1.9l5.8-0.2l1.7-2.2l4.1,2.7c0.3,0,0.3,0.1,0,0.2
		l-1,1.9v9.4l0.2,0.5c0,0.3-0.1,0.5-0.2,0.5c-2.4,0-6,0.1-10.7,0.2v1c-0.2,2.3-1.1,4.2-2.9,5.8c-0.3,0.2-0.6,0.2-0.7,0.2
		c-0.2,0-0.2-0.2-0.2-0.5l0.2-8v-8.2c0-1.9,0-3.5,0-4.8c-2.3,2.1-4.8,4.3-7.5,6.5c-0.5,0.3-0.6,0.2-0.5-0.5
		c5.8-6.3,9.6-12.4,11.4-18.4C780.8,198.4,781.1,198.3,781.6,198.4z M790.3,198v-4.1H785l-0.5,3.6c-1.5,1.1-2.3,1.4-2.7,0.7
		l-0.5-4.4h-1.7c-3.1,0.2-5.2,0.5-6.5,1l-1.9-2.2l10.2-0.2l-1-7.3l6.3,1.9c0.2,0,0.3,0.1,0.5,0.2l-0.2,0.5l-1,1.2l-0.7,3.4h5.1v-2.7
		v-5.1l5.8,2.4c0.2,0,0.3,0.1,0.5,0.2l-0.2,0.5l-1.2,1.5l-0.5,2.9h4.4l2.9-2.9l3.6,3.4c0.3,0.3,0.3,0.6,0,0.7l-11.4,0.2l-0.7,4.1
		c-0.5,1-1.3,1.5-2.4,1.5C790.7,199,790.4,198.6,790.3,198z M781.1,213.9v10.7l6.1-0.2l-0.2-10.7L781.1,213.9z M806,208.4
		c0.8,4.8,2.3,9,4.4,12.6c2.1-4.7,3.7-10.6,4.8-17.7l-7.3,0.2c-1.6,2.9-3.5,5.8-5.6,8.7c-0.3,0.2-0.6,0.2-0.7,0
		c-0.2-0.2-0.2-0.3,0-0.5c4.2-10.2,7.3-19.4,9.2-27.6c0-0.3,0.2-0.4,0.5-0.2l5.8,4.1c0.3,0.5,0.2,0.8-0.2,1c-1,0.8-1.8,1.7-2.4,2.7
		c-1.8,3.9-3.6,7.3-5.6,10.4l11.4-0.5l3.1-3.6l4.6,3.9c0.2,0.5,0.1,0.7-0.2,0.7l-11.6,0.7l3.9,2.7c0.5,0.3,0.4,1.1-0.2,2.2
		c-2.3,7.4-4.5,13-6.8,16.7c4,4.8,9.4,8.6,16.2,11.4c0.5,0.5,0.4,0.8-0.2,1c-1.9-0.2-4.8,1.1-8.5,3.9c-5.3-4.2-8.8-8.2-10.4-11.9
		c-3.7,4.4-9,8.7-15.7,13.1c-0.3,0-0.6-0.1-0.7-0.2c0-0.2,0.1-0.3,0.2-0.5c6.8-5.3,11.6-10.7,14.5-16.2c-1.1-3.1-2.1-7.9-2.9-14.5
		c-0.2-1-0.2-1.7-0.2-2.2L806,208.4z"/>
</g>
</svg>
